<?xml version="1.0" standalone="no"?>
<!DOCTYPE svg PUBLIC "-//W3C//DTD SVG 20010904//EN"
 "http://www.w3.org/TR/2001/REC-SVG-20010904/DTD/svg10.dtd">
<svg version="1.0" xmlns="http://www.w3.org/2000/svg"
 width="512.000000pt" height="512.000000pt" viewBox="0 0 512.000000 512.000000"
 preserveAspectRatio="xMidYMid meet">

<g transform="translate(0.000000,512.000000) scale(0.100000,-0.100000)"
fill="#123740" stroke="none">
<path d="M2370 4724 c-396 -48 -707 -158 -1005 -354 -141 -94 -233 -171 -360
-301 -161 -166 -272 -319 -372 -515 -157 -305 -230 -595 -240 -955 l-6 -196
-124 -62 c-68 -33 -143 -79 -167 -101 -75 -69 -111 -190 -87 -286 19 -76 536
-1072 579 -1117 59 -60 133 -92 218 -92 68 0 77 3 218 72 l146 73 93 -68 c407
-300 880 -448 1377 -429 314 12 572 76 855 211 196 94 378 214 508 335 40 37
47 49 47 82 0 28 -6 42 -22 53 -42 29 -71 20 -154 -50 -291 -243 -607 -389
-994 -461 -144 -26 -504 -24 -660 5 -286 53 -545 155 -772 306 -46 31 -94 64
-107 74 l-24 19 188 97 187 96 132 -65 c147 -73 262 -113 416 -147 91 -19 133
-22 320 -22 185 0 230 3 320 23 717 154 1231 718 1315 1443 l6 58 183 95 c101
52 186 95 190 95 3 0 6 -45 6 -100 0 -275 -69 -581 -189 -835 -60 -128 -103
-199 -193 -327 -83 -118 -88 -156 -25 -183 47 -20 76 -3 138 83 277 379 419
821 419 1304 l0 143 125 63 c68 34 143 78 165 98 77 69 115 193 91 291 -7 26
-132 279 -278 563 -199 387 -275 525 -305 557 -58 59 -126 87 -214 88 -68 0
-76 -3 -221 -74 l-151 -74 -89 65 c-279 207 -582 336 -938 399 -116 20 -450
34 -545 23z m408 -155 c223 -24 459 -93 667 -194 119 -58 345 -198 345 -213 0
-4 -85 -50 -188 -102 l-187 -95 -121 61 c-138 69 -262 112 -414 145 -91 20
-134 23 -320 23 -237 0 -320 -12 -512 -74 -591 -193 -1026 -713 -1112 -1329
-8 -57 -19 -107 -23 -111 -11 -10 -358 -190 -366 -190 -11 0 -8 170 4 278 51
476 264 912 605 1242 430 416 1031 624 1622 559z m1595 -343 c18 -7 41 -24 53
-37 12 -13 137 -249 279 -524 245 -474 259 -503 259 -556 1 -45 -4 -62 -25
-90 -22 -28 -283 -166 -1580 -833 -855 -440 -1768 -910 -2029 -1045 -446 -231
-478 -246 -527 -245 -94 0 -93 -1 -385 564 -247 478 -262 508 -262 561 -2 101
-36 79 809 513 416 215 768 398 781 409 49 38 19 127 -42 127 -14 0 -154 -66
-312 -147 -158 -82 -292 -149 -298 -151 -17 -5 10 132 52 258 168 507 585 877
1117 992 137 30 436 32 571 5 159 -32 428 -129 409 -148 -4 -4 -294 -155 -643
-335 -349 -179 -643 -333 -652 -342 -24 -21 -23 -77 2 -102 42 -42 -59 -89
1295 608 358 184 736 379 842 433 199 103 226 111 286 85z m-338 -1898 c-101
-635 -593 -1131 -1230 -1240 -101 -17 -147 -19 -290 -15 -178 6 -298 27 -445
78 -81 27 -215 88 -209 94 3 2 209 109 459 238 772 397 982 505 1355 698 198
103 362 187 363 188 2 0 1 -18 -3 -41z"/>
<path d="M3353 3370 c-25 -10 -43 -39 -43 -69 0 -10 62 -140 139 -287 171
-331 152 -317 309 -239 110 54 132 73 132 117 0 72 -68 88 -158 37 -30 -17
-55 -29 -57 -27 -1 2 -55 105 -119 229 -128 249 -141 264 -203 239z"/>
<path d="M2835 3095 c-32 -31 -32 -31 7 -384 36 -327 40 -341 104 -341 21 0
42 8 55 21 19 19 21 29 16 88 l-6 66 104 54 104 53 52 -41 c28 -22 62 -41 76
-41 31 0 73 42 73 75 0 33 -20 53 -278 284 -191 171 -216 191 -248 191 -24 0
-43 -8 -59 -25z m209 -279 l60 -54 -53 -27 c-29 -14 -54 -25 -56 -23 -6 6 -21
158 -16 158 3 -1 33 -25 65 -54z"/>
<path d="M2365 2855 c-14 -13 -25 -34 -25 -46 0 -25 253 -524 283 -556 29 -33
79 -31 106 3 12 15 21 35 21 45 0 26 -267 541 -292 562 -28 24 -65 21 -93 -8z"/>
<path d="M1923 2634 c-108 -57 -123 -69 -123 -106 0 -37 264 -554 290 -568 29
-16 75 -12 93 8 26 29 20 81 -17 150 -19 34 -30 62 -25 62 5 0 60 -20 121 -45
132 -53 168 -56 197 -19 47 59 16 99 -119 149 -55 21 -100 40 -100 43 0 2 8
16 18 30 61 87 54 202 -16 275 -45 47 -94 67 -166 67 -58 0 -75 -5 -153 -46z
m210 -122 c19 -17 22 -53 7 -83 -10 -17 -78 -59 -98 -59 -8 0 -62 103 -62 119
0 7 54 34 90 44 19 5 40 -2 63 -21z"/>
<path d="M1408 2370 c-86 -44 -162 -88 -168 -99 -27 -52 5 -111 60 -111 17 0
48 9 70 20 l39 20 111 -218 c61 -119 120 -226 130 -236 42 -42 120 -11 120 47
0 19 -43 114 -115 253 l-115 224 49 24 c51 26 61 40 61 86 0 31 -40 70 -69 69
-9 0 -87 -36 -173 -79z"/>
</g>
</svg>
