<?xml version="1.0" standalone="no"?>
<!DOCTYPE svg PUBLIC "-//W3C//DTD SVG 20010904//EN"
 "http://www.w3.org/TR/2001/REC-SVG-20010904/DTD/svg10.dtd">
<svg version="1.0" xmlns="http://www.w3.org/2000/svg"
 width="512.000000pt" height="512.000000pt" viewBox="0 0 512.000000 512.000000"
 preserveAspectRatio="xMidYMid meet">

<g transform="translate(0.000000,512.000000) scale(0.100000,-0.100000)"
fill="#123740" stroke="none">
<path d="M445 4166 c-41 -19 -83 -66 -95 -107 -15 -52 -13 -1504 2 -1532 27
-52 83 -62 123 -22 l25 24 0 746 0 745 1545 0 1545 0 0 -736 c0 -540 3 -741
12 -757 27 -52 83 -62 123 -22 21 20 25 34 25 85 l0 60 493 0 c299 0 506 -4
528 -10 51 -14 98 -48 136 -98 54 -71 52 -72 -102 -72 -131 0 -137 -1 -160
-25 -24 -23 -25 -30 -25 -146 0 -154 11 -190 75 -254 58 -59 102 -75 199 -75
l66 0 0 -180 0 -180 -103 0 -103 0 -31 63 c-185 373 -722 372 -906 -1 -21 -41
-37 -62 -47 -60 -13 3 -16 48 -20 325 -5 354 -4 346 -67 359 -27 5 -37 1 -63
-24 l-30 -30 0 -316 0 -316 -830 0 -829 0 -21 47 c-88 200 -312 324 -532 293
-158 -22 -317 -137 -383 -278 l-30 -62 -230 2 -230 3 0 90 0 90 192 3 192 2
20 27 c28 34 26 66 -3 100 l-24 28 -417 0 -417 0 -24 -28 c-29 -34 -31 -66 -3
-101 l20 -26 150 0 149 0 0 -102 c0 -78 5 -113 19 -143 43 -94 78 -104 356
-105 l220 0 13 -77 c67 -422 590 -578 876 -262 57 63 114 178 122 246 3 26 7
58 10 71 l4 22 898 0 898 0 15 -82 c21 -108 58 -185 125 -258 110 -118 213
-163 374 -163 161 0 264 45 374 163 68 75 104 146 124 254 l16 85 144 3 144 3
24 29 25 28 -3 487 c-3 473 -4 487 -25 539 -49 120 -162 225 -274 253 -34 9
-54 20 -60 34 -5 11 -36 129 -69 263 l-60 243 31 26 31 27 -4 105 c-3 91 -8
113 -31 159 -33 62 -91 124 -144 150 -71 36 -135 42 -453 42 l-308 0 -4 118
c-3 105 -6 121 -27 151 -13 18 -42 42 -65 52 -39 18 -101 19 -1611 18 -1290 0
-1575 -2 -1600 -13z m3992 -508 c43 -24 83 -78 90 -122 l6 -36 -392 0 -391 0
0 91 0 90 328 -3 c289 -3 331 -5 359 -20z m91 -580 c34 -139 62 -256 62 -260
0 -5 -189 -8 -420 -8 l-420 0 0 260 0 260 358 0 357 0 63 -252z m432 -858 l0
-90 -64 0 c-55 0 -67 3 -90 26 -23 23 -26 35 -26 90 l0 64 90 0 90 0 0 -90z
m-3435 -435 c87 -14 188 -94 234 -183 45 -87 45 -216 0 -303 -132 -261 -493
-261 -621 -1 -30 60 -33 75 -33 152 1 72 5 94 28 142 49 101 151 180 256 198
46 8 60 7 136 -5z m2800 4 c154 -28 271 -151 290 -304 13 -104 -43 -240 -125
-305 -202 -160 -492 -61 -556 189 -48 189 83 387 278 420 29 5 53 9 54 10 0 0
27 -4 59 -10z"/>
<path d="M1362 1591 c-122 -77 -95 -259 46 -302 80 -24 183 37 198 117 21 115
-39 195 -151 202 -47 2 -67 -1 -93 -17z"/>
<path d="M4191 1593 c-99 -49 -113 -203 -25 -272 69 -54 158 -49 220 13 57 57
64 146 15 214 -41 59 -139 80 -210 45z"/>
<path d="M2328 3043 l-368 -368 -193 192 c-122 122 -202 194 -220 199 -56 13
-109 -52 -87 -106 6 -15 114 -129 239 -254 207 -206 231 -226 262 -226 31 0
65 31 441 408 372 371 408 410 408 440 0 44 -38 82 -81 82 -30 0 -69 -36 -401
-367z"/>
<path d="M199 2271 c-36 -36 -37 -73 -4 -106 l24 -25 540 0 c297 0 547 3 556
6 18 7 45 55 45 79 0 9 -13 30 -29 46 l-29 29 -537 0 -537 0 -29 -29z"/>
<path d="M2103 1950 c-34 -14 -56 -54 -48 -90 14 -62 -13 -60 681 -60 l633 0
20 26 c28 35 26 67 -3 101 l-24 28 -619 2 c-345 1 -628 -2 -640 -7z"/>
</g>
</svg>
