<svg width="272" height="19" viewBox="0 0 272 19" fill="none" xmlns="http://www.w3.org/2000/svg">
<path d="M234.088 18.179C233.56 18.179 233.118 18.0004 232.761 17.6432C232.403 17.2859 232.225 16.8436 232.225 16.3163C232.225 15.7889 232.403 15.3466 232.761 14.9893C233.118 14.6321 233.56 14.4535 234.088 14.4535C234.598 14.4535 235.032 14.6321 235.389 14.9893C235.746 15.3466 235.925 15.7889 235.925 16.3163C235.925 16.8436 235.746 17.2859 235.389 17.6432C235.032 18.0004 234.598 18.179 234.088 18.179Z" fill="#B0D6E1"/>
<path d="M257.748 0.265751V18.0004H254.839V5.85408L249.429 18.0004H247.413L241.978 5.85408V18.0004H239.069V0.265751H242.208L248.434 14.1728L254.635 0.265751H257.748Z" fill="#B0D6E1"/>
<path d="M264.48 2.61336V7.81893H270.604V10.1921H264.48V15.6273H271.37V18.0004H261.571V0.240234H271.37V2.61336H264.48Z" fill="#B0D6E1"/>
<path d="M10.4063 8.88973C11.359 9.05984 12.167 9.56169 12.8305 10.3953C13.4939 11.2288 13.8257 12.173 13.8257 13.2277C13.8257 14.1293 13.5875 14.9459 13.1112 15.6774C12.6519 16.3919 11.9799 16.9618 11.0953 17.3871C10.2107 17.7953 9.18149 17.9995 8.00768 17.9995H0.913818V0.264813H7.67595C8.88378 0.264813 9.92149 0.468954 10.7891 0.877234C11.6567 1.28551 12.3116 1.83839 12.7539 2.53587C13.1962 3.21634 13.4174 3.98186 13.4174 4.83245C13.4174 5.85315 13.1452 6.70373 12.6008 7.3842C12.0565 8.06466 11.325 8.56651 10.4063 8.88973ZM3.82281 7.71592H7.42078C8.37343 7.71592 9.11344 7.50328 9.6408 7.07799C10.1852 6.63568 10.4574 6.00625 10.4574 5.18969C10.4574 4.39014 10.1852 3.76922 9.6408 3.32691C9.11344 2.8676 8.37343 2.63794 7.42078 2.63794H3.82281V7.71592ZM7.75251 15.6263C8.73918 15.6263 9.51321 15.3882 10.0746 14.9119C10.636 14.4355 10.9167 13.7721 10.9167 12.9215C10.9167 12.0539 10.619 11.3649 10.0236 10.8546C9.42816 10.3442 8.63711 10.0891 7.65044 10.0891H3.82281V15.6263H7.75251Z" fill="#B0D6E1"/>
<path d="M19.8958 2.61242V7.81799H26.02V10.1911H19.8958V15.6263H26.7856V17.9995H16.9868V0.239297H26.7856V2.61242H19.8958Z" fill="#B0D6E1"/>
<path d="M36.2121 18.1781C35.0213 18.1781 33.9495 17.974 32.9969 17.5657C32.0442 17.1404 31.2957 16.545 30.7513 15.7795C30.207 15.0139 29.9348 14.1208 29.9348 13.1001H33.0479C33.116 13.8656 33.4137 14.4951 33.941 14.9884C34.4854 15.4817 35.2424 15.7284 36.2121 15.7284C37.2158 15.7284 37.9983 15.4903 38.5597 15.0139C39.1211 14.5206 39.4018 13.8912 39.4018 13.1256C39.4018 12.5302 39.2232 12.0454 38.8659 11.6711C38.5257 11.2969 38.0919 11.0077 37.5645 10.8035C37.0542 10.5994 36.3397 10.3782 35.421 10.1401C34.2643 9.83388 33.3201 9.52766 32.5886 9.22145C31.8741 8.89823 31.2617 8.40489 30.7513 7.74144C30.241 7.07798 29.9858 6.19338 29.9858 5.08762C29.9858 4.06692 30.241 3.17381 30.7513 2.40828C31.2617 1.64276 31.9762 1.05586 32.8948 0.647577C33.8134 0.239297 34.8767 0.0351562 36.0845 0.0351562C37.8027 0.0351562 39.2061 0.468954 40.2949 1.33655C41.4006 2.18713 42.0131 3.36094 42.1321 4.85796H38.9169C38.8659 4.21152 38.5597 3.65864 37.9983 3.19933C37.4369 2.74001 36.6969 2.51035 35.7783 2.51035C34.9447 2.51035 34.2643 2.723 33.7369 3.14829C33.2095 3.57358 32.9459 4.186 32.9459 4.98555C32.9459 5.52992 33.1075 5.98073 33.4307 6.33798C33.7709 6.67821 34.1962 6.9504 34.7066 7.15454C35.2169 7.35868 35.9144 7.57983 36.799 7.81799C37.9728 8.14121 38.9255 8.46444 39.657 8.78766C40.4055 9.11088 41.0349 9.61272 41.5452 10.2932C42.0726 10.9566 42.3363 11.8498 42.3363 12.9725C42.3363 13.8741 42.0896 14.7247 41.5963 15.5243C41.12 16.3238 40.414 16.9703 39.4783 17.4636C38.5597 17.9399 37.471 18.1781 36.2121 18.1781Z" fill="#B0D6E1"/>
<path d="M57.2261 0.264813V2.63794H52.5054V17.9995H49.5964V2.63794H44.8502V0.264813H57.2261Z" fill="#B0D6E1"/>
<path d="M70.4354 7.5373V9.98698H59.9478V7.5373H70.4354Z" fill="white"/>
<path d="M93.2471 0.264813V17.9995H90.3381V5.85315L84.9284 17.9995H82.9125L77.4773 5.85315V17.9995H74.5683V0.264813H77.7069L83.9332 14.1719L90.134 0.264813H93.2471Z" fill="white"/>
<path d="M107.762 14.376H100.337L99.0609 17.9995H96.0243L102.378 0.239297H105.746L112.1 17.9995H109.038L107.762 14.376ZM106.946 12.0029L104.062 3.76071L101.153 12.0029H106.946Z" fill="white"/>
<path d="M126.32 0.264813V2.63794H121.6V17.9995H118.691V2.63794H113.944V0.264813H126.32Z" fill="white"/>
<path d="M140.724 0.264813V2.63794H136.003V17.9995H133.094V2.63794H128.348V0.264813H140.724Z" fill="white"/>
<path d="M152.882 17.9995L148.799 10.9056H146.579V17.9995H143.67V0.264813H149.794C151.155 0.264813 152.303 0.502977 153.239 0.979303C154.192 1.45563 154.898 2.09357 155.357 2.89312C155.833 3.69266 156.071 4.58578 156.071 5.57245C156.071 6.72925 155.731 7.78397 155.051 8.73662C154.387 9.67226 153.358 10.3102 151.963 10.6504L156.352 17.9995H152.882ZM146.579 8.58352H149.794C150.883 8.58352 151.699 8.31133 152.244 7.76696C152.805 7.22258 153.086 6.49108 153.086 5.57245C153.086 4.65382 152.814 3.93933 152.269 3.42898C151.725 2.90162 150.9 2.63794 149.794 2.63794H146.579V8.58352Z" fill="white"/>
<path d="M162.702 2.61242V7.81799H168.826V10.1911H162.702V15.6263H169.591V17.9995H159.793V0.239297H169.591V2.61242H162.702Z" fill="white"/>
<path d="M179.018 18.1781C177.827 18.1781 176.755 17.974 175.803 17.5657C174.85 17.1404 174.102 16.545 173.557 15.7795C173.013 15.0139 172.741 14.1208 172.741 13.1001H175.854C175.922 13.8656 176.22 14.4951 176.747 14.9884C177.291 15.4817 178.048 15.7284 179.018 15.7284C180.022 15.7284 180.804 15.4903 181.366 15.0139C181.927 14.5206 182.208 13.8912 182.208 13.1256C182.208 12.5302 182.029 12.0454 181.672 11.6711C181.332 11.2969 180.898 11.0077 180.37 10.8035C179.86 10.5994 179.146 10.3782 178.227 10.1401C177.07 9.83388 176.126 9.52766 175.394 9.22145C174.68 8.89823 174.068 8.40489 173.557 7.74144C173.047 7.07798 172.792 6.19338 172.792 5.08762C172.792 4.06692 173.047 3.17381 173.557 2.40828C174.068 1.64276 174.782 1.05586 175.701 0.647577C176.619 0.239297 177.683 0.0351562 178.89 0.0351562C180.609 0.0351562 182.012 0.468954 183.101 1.33655C184.207 2.18713 184.819 3.36094 184.938 4.85796H181.723C181.672 4.21152 181.366 3.65864 180.804 3.19933C180.243 2.74001 179.503 2.51035 178.584 2.51035C177.751 2.51035 177.07 2.723 176.543 3.14829C176.015 3.57358 175.752 4.186 175.752 4.98555C175.752 5.52992 175.913 5.98073 176.237 6.33798C176.577 6.67821 177.002 6.9504 177.512 7.15454C178.023 7.35868 178.72 7.57983 179.605 7.81799C180.779 8.14121 181.731 8.46444 182.463 8.78766C183.211 9.11088 183.841 9.61272 184.351 10.2932C184.878 10.9566 185.142 11.8498 185.142 12.9725C185.142 13.8741 184.895 14.7247 184.402 15.5243C183.926 16.3238 183.22 16.9703 182.284 17.4636C181.366 17.9399 180.277 18.1781 179.018 18.1781Z" fill="white"/>
<path d="M194.418 18.1781C193.227 18.1781 192.156 17.974 191.203 17.5657C190.25 17.1404 189.502 16.545 188.957 15.7795C188.413 15.0139 188.141 14.1208 188.141 13.1001H191.254C191.322 13.8656 191.62 14.4951 192.147 14.9884C192.691 15.4817 193.449 15.7284 194.418 15.7284C195.422 15.7284 196.204 15.4903 196.766 15.0139C197.327 14.5206 197.608 13.8912 197.608 13.1256C197.608 12.5302 197.429 12.0454 197.072 11.6711C196.732 11.2969 196.298 11.0077 195.771 10.8035C195.26 10.5994 194.546 10.3782 193.627 10.1401C192.47 9.83388 191.526 9.52766 190.795 9.22145C190.08 8.89823 189.468 8.40489 188.957 7.74144C188.447 7.07798 188.192 6.19338 188.192 5.08762C188.192 4.06692 188.447 3.17381 188.957 2.40828C189.468 1.64276 190.182 1.05586 191.101 0.647577C192.02 0.239297 193.083 0.0351562 194.291 0.0351562C196.009 0.0351562 197.412 0.468954 198.501 1.33655C199.607 2.18713 200.219 3.36094 200.338 4.85796H197.123C197.072 4.21152 196.766 3.65864 196.204 3.19933C195.643 2.74001 194.903 2.51035 193.984 2.51035C193.151 2.51035 192.47 2.723 191.943 3.14829C191.416 3.57358 191.152 4.186 191.152 4.98555C191.152 5.52992 191.314 5.98073 191.637 6.33798C191.977 6.67821 192.402 6.9504 192.913 7.15454C193.423 7.35868 194.12 7.57983 195.005 7.81799C196.179 8.14121 197.132 8.46444 197.863 8.78766C198.612 9.11088 199.241 9.61272 199.751 10.2932C200.279 10.9566 200.542 11.8498 200.542 12.9725C200.542 13.8741 200.296 14.7247 199.802 15.5243C199.326 16.3238 198.62 16.9703 197.684 17.4636C196.766 17.9399 195.677 18.1781 194.418 18.1781Z" fill="white"/>
<path d="M206.884 2.61242V7.81799H213.008V10.1911H206.884V15.6263H213.774V17.9995H203.975V0.239297H213.774V2.61242H206.884Z" fill="white"/>
<path d="M223.2 18.1781C222.009 18.1781 220.938 17.974 219.985 17.5657C219.032 17.1404 218.284 16.545 217.739 15.7795C217.195 15.0139 216.923 14.1208 216.923 13.1001H220.036C220.104 13.8656 220.402 14.4951 220.929 14.9884C221.473 15.4817 222.23 15.7284 223.2 15.7284C224.204 15.7284 224.986 15.4903 225.548 15.0139C226.109 14.5206 226.39 13.8912 226.39 13.1256C226.39 12.5302 226.211 12.0454 225.854 11.6711C225.514 11.2969 225.08 11.0077 224.553 10.8035C224.042 10.5994 223.328 10.3782 222.409 10.1401C221.252 9.83388 220.308 9.52766 219.577 9.22145C218.862 8.89823 218.25 8.40489 217.739 7.74144C217.229 7.07798 216.974 6.19338 216.974 5.08762C216.974 4.06692 217.229 3.17381 217.739 2.40828C218.25 1.64276 218.964 1.05586 219.883 0.647577C220.801 0.239297 221.865 0.0351562 223.073 0.0351562C224.791 0.0351562 226.194 0.468954 227.283 1.33655C228.389 2.18713 229.001 3.36094 229.12 4.85796H225.905C225.854 4.21152 225.548 3.65864 224.986 3.19933C224.425 2.74001 223.685 2.51035 222.766 2.51035C221.933 2.51035 221.252 2.723 220.725 3.14829C220.198 3.57358 219.934 4.186 219.934 4.98555C219.934 5.52992 220.095 5.98073 220.419 6.33798C220.759 6.67821 221.184 6.9504 221.695 7.15454C222.205 7.35868 222.902 7.57983 223.787 7.81799C224.961 8.14121 225.913 8.46444 226.645 8.78766C227.393 9.11088 228.023 9.61272 228.533 10.2932C229.061 10.9566 229.324 11.8498 229.324 12.9725C229.324 13.8741 229.078 14.7247 228.584 15.5243C228.108 16.3238 227.402 16.9703 226.466 17.4636C225.548 17.9399 224.459 18.1781 223.2 18.1781Z" fill="white"/>
</svg>
